<svg width="36" height="36" viewBox="0 0 36 36" fill="none" xmlns="http://www.w3.org/2000/svg">
<rect width="36" height="36" rx="18" fill="#171717"/>
<path d="M18.4818 10.0328C17.9193 9.87998 17.3275 9.79842 16.7166 9.79842C13.0071 9.79842 10 12.8055 10 16.515C10 20.2245 13.0071 23.2316 16.7166 23.2316C18.3093 23.2316 19.7726 22.6772 20.9239 21.7508L24.7585 25.5854C25.0425 25.8694 25.503 25.8694 25.787 25.5854C26.071 25.3014 26.071 24.8409 25.787 24.5569L21.9524 20.7223C22.8788 19.571 23.4332 18.1077 23.4332 16.515C23.4332 15.9105 23.3533 15.3246 23.2036 14.7674C22.6933 15.2325 22.2752 15.7965 21.9779 16.4305C21.9784 16.4586 21.9786 16.4868 21.9786 16.515C21.9786 19.4211 19.6227 21.777 16.7166 21.777C13.8104 21.777 11.4545 19.4211 11.4545 16.515C11.4545 13.6089 13.8104 11.253 16.7166 11.253C16.7564 11.253 16.7961 11.2534 16.8357 11.2543C17.4631 10.9564 18.0212 10.5399 18.4818 10.0328Z" fill="white" fill-opacity="0.96"/>
<path d="M20.3635 8.8002C20.4555 8.50182 20.8779 8.50182 20.9699 8.8002L21.2942 9.8519C21.6034 10.8546 22.3884 11.6396 23.3912 11.9489L24.4429 12.2732C24.7413 12.3652 24.7413 12.7876 24.4429 12.8796L23.3912 13.2039C22.3884 13.5132 21.6034 14.2982 21.2942 15.3009L20.9699 16.3526C20.8779 16.651 20.4555 16.651 20.3635 16.3526L20.0391 15.3009C19.7299 14.2982 18.9449 13.5132 17.9422 13.2039L16.8905 12.8796C16.5921 12.7876 16.5921 12.3652 16.8905 12.2732L17.9422 11.9489C18.9449 11.6396 19.7299 10.8546 20.0391 9.8519L20.3635 8.8002Z" fill="white" fill-opacity="0.96"/>
</svg>
